<svg width="44" height="44" viewBox="0 0 44 44" fill="none" xmlns="http://www.w3.org/2000/svg">
<path d="M32.5 27.8333V18.5C32.5 17.2113 31.4554 16.1666 30.1667 16.1666H27.25C26.6056 16.1666 26.0833 15.6443 26.0833 15C26.0833 14.3557 25.561 13.8333 24.9167 13.8333H19.0833C18.439 13.8333 17.9167 14.3557 17.9167 15C17.9167 15.6443 17.3943 16.1666 16.75 16.1666H13.8333C12.5447 16.1666 11.5 17.2113 11.5 18.5V27.8333C11.5 29.122 12.5447 30.1666 13.8333 30.1666H30.1667C31.4554 30.1666 32.5 29.122 32.5 27.8333Z" stroke="#388059" stroke-width="1.5"/>
<path d="M24.625 23.1666C24.625 24.6163 23.4497 25.7916 22 25.7916V27.5416C24.4163 27.5416 26.375 25.5829 26.375 23.1666H24.625ZM22 25.7916C20.5503 25.7916 19.375 24.6163 19.375 23.1666H17.625C17.625 25.5829 19.5838 27.5416 22 27.5416V25.7916ZM19.375 23.1666C19.375 21.7169 20.5503 20.5416 22 20.5416V18.7916C19.5838 18.7916 17.625 20.7503 17.625 23.1666H19.375ZM22 20.5416C23.4497 20.5416 24.625 21.7169 24.625 23.1666H26.375C26.375 20.7503 24.4163 18.7916 22 18.7916V20.5416Z" fill="#388059"/>
<rect x="0.5" y="0.5" width="43" height="43" rx="21.5" stroke="#388059"/>
</svg>
