<svg width="20" height="16" viewBox="0 0 20 16" fill="none" xmlns="http://www.w3.org/2000/svg">
<path d="M19 13V5C19 3.89543 18.1046 3 17 3H14.5C13.9477 3 13.5 2.55228 13.5 2C13.5 1.44772 13.0523 1 12.5 1H7.5C6.94772 1 6.5 1.44772 6.5 2C6.5 2.55228 6.05228 3 5.5 3H3C1.89543 3 1 3.89543 1 5V13C1 14.1046 1.89543 15 3 15H17C18.1046 15 19 14.1046 19 13Z" stroke="white" stroke-width="1.5"/>
<path d="M12.25 9C12.25 10.2426 11.2426 11.25 10 11.25V12.75C12.0711 12.75 13.75 11.0711 13.75 9H12.25ZM10 11.25C8.7574 11.25 7.75 10.2426 7.75 9H6.25C6.25 11.0711 7.92893 12.75 10 12.75V11.25ZM7.75 9C7.75 7.7574 8.7574 6.75 10 6.75V5.25C7.92893 5.25 6.25 6.9289 6.25 9H7.75ZM10 6.75C11.2426 6.75 12.25 7.7574 12.25 9H13.75C13.75 6.9289 12.0711 5.25 10 5.25V6.75Z" fill="white"/>
</svg>
