<svg width="92" height="92" viewBox="0 0 92 92" fill="none" xmlns="http://www.w3.org/2000/svg">
<path opacity="0.15" d="M91 46C91 70.853 70.853 91 46 91C21.1472 91 1 70.853 1 46C1 21.1472 21.1472 1 46 1C70.853 1 91 21.1472 91 46Z" fill="#F58344"/>
<path d="M46 67.95V68" stroke="#F58344" stroke-width="3.5" stroke-linecap="round" stroke-linejoin="round"/>
<path d="M46 21V56" stroke="#F58344" stroke-width="1.5" stroke-linecap="round" stroke-linejoin="round"/>
<path d="M46 91C70.853 91 91 70.853 91 46C91 21.1472 70.853 1 46 1C21.1472 1 1 21.1472 1 46C1 70.853 21.1472 91 46 91Z" stroke="#F58344" stroke-width="1.5" stroke-linecap="round" stroke-linejoin="round"/>
</svg>
