<svg width="18" height="22" viewBox="0 0 18 22" fill="none" xmlns="http://www.w3.org/2000/svg">
<path d="M15 13.5115C15.9812 12.1804 16.5 11 16.5 11C16.5 11 13.7727 4.79547 9 4.79547C8.7441 4.79547 8.49405 4.81331 8.25 4.84708C7.99335 4.88258 7.7433 4.93571 7.5 5.00423" stroke="#388059" stroke-width="1.5" stroke-linecap="round" stroke-linejoin="round"/>
<path d="M9 8.34094C9.26295 8.34094 9.5154 8.39426 9.75 8.49225C10.3893 8.7593 10.896 9.35813 11.122 10.1137C11.2048 10.3909 11.25 10.6893 11.25 11" stroke="#388059" stroke-width="1.5" stroke-linecap="round" stroke-linejoin="round"/>
<path d="M2.25 3.02277L15.75 18.9773" stroke="#388059" stroke-width="1.5" stroke-linecap="round" stroke-linejoin="round"/>
<path d="M9.00003 13.6591C8.73708 13.6591 8.48463 13.6058 8.25003 13.5078C7.61073 13.2408 7.10401 12.642 6.87805 11.8864C6.83542 11.7439 6.80278 11.5958 6.78113 11.4432" stroke="#388059" stroke-width="1.5" stroke-linecap="round" stroke-linejoin="round"/>
<path d="M3.11026 8.34094C2.87908 8.6463 2.67175 8.94581 2.48898 9.22731C1.83964 10.2273 1.5 11 1.5 11C1.5 11 4.22727 17.2046 9 17.2046C9.2559 17.2046 9.50595 17.1868 9.75 17.153" stroke="#388059" stroke-width="1.5" stroke-linecap="round" stroke-linejoin="round"/>
</svg>
