<svg width="30" height="30" viewBox="0 0 30 30" fill="none" xmlns="http://www.w3.org/2000/svg">
<path d="M25 8.75H5C4.30965 8.75 3.75 9.30965 3.75 10V20C3.75 20.6904 4.30965 21.25 5 21.25H25C25.6904 21.25 26.25 20.6904 26.25 20V10C26.25 9.30965 25.6904 8.75 25 8.75Z" stroke="#388059" stroke-width="1.5" stroke-linecap="round" stroke-linejoin="round"/>
<path d="M7.5 11.875V18.125" stroke="#F58344" stroke-width="1.5" stroke-linecap="round" stroke-linejoin="round"/>
<path d="M18.125 15C18.125 16.7259 16.7259 18.125 15 18.125C13.2741 18.125 11.875 16.7259 11.875 15C11.875 13.2741 13.2741 11.875 15 11.875C16.7259 11.875 18.125 13.2741 18.125 15Z" stroke="#388059" stroke-width="1.5" stroke-linecap="round" stroke-linejoin="round"/>
<path d="M22.5 11.875V18.125" stroke="#F58344" stroke-width="1.5" stroke-linecap="round" stroke-linejoin="round"/>
</svg>
