<svg width="20" height="20" viewBox="0 0 20 20" fill="none" xmlns="http://www.w3.org/2000/svg">
<path d="M9.85693 0.857117C4.88637 0.857117 0.856934 4.88656 0.856934 9.85712C0.856934 14.8277 4.88637 18.8571 9.85693 18.8571C14.8275 18.8571 18.8569 14.8277 18.8569 9.85712C18.8569 4.88656 14.8275 0.857117 9.85693 0.857117Z" stroke="black" stroke-opacity="0.6"/>
<path d="M9.85693 9.85712C11.5138 9.85712 12.8569 8.51402 12.8569 6.85712C12.8569 5.20027 11.5138 3.85712 9.85693 3.85712C8.20003 3.85712 6.85693 5.20027 6.85693 6.85712C6.85693 8.51402 8.20003 9.85712 9.85693 9.85712Z" stroke="black" stroke-opacity="0.6"/>
<path d="M3.85693 16.5654C3.85693 14.9457 5.02865 12.8571 6.85693 12.8571H12.8569C14.6852 12.8571 15.8569 14.9457 15.8569 16.5654" stroke="black" stroke-opacity="0.6"/>
</svg>
